<svg viewBox="0 0 100 100" xmlns="http://www.w3.org/2000/svg">
  <rect width="100" height="100" rx="22" fill="#1a3e26"/>
  <g transform="translate(50 52) scale(0.9) translate(-50 -51) rotate(-7 50 55)">
    <path d="M50 34 C 50 22, 54 14, 64 10 C 70 7.5, 76 8, 80 12" fill="none" stroke="#f7f0de" stroke-width="7" stroke-linecap="round"/>
    <path d="M50 88 C 44 78, 14 62, 14 38 C 14 24, 24 17, 33 17 C 41 17, 48 24, 50 34 C 52 24, 59 17, 67 17 C 76 17, 86 24, 86 38 C 86 62, 56 78, 50 88 Z" fill="#f7f0de"/>
    <path d="M50 42 C 49 54, 49 66, 50 82" fill="none" stroke="#1a3e26" stroke-width="2.6" stroke-linecap="round"/>
  </g>
</svg>
